<svg xmlns="http://www.w3.org/2000/svg" viewBox="0 0 193.75 207.01"><title>morty</title><path d="M148.5,176.6c-.69-3.29-1-6.66-1.55-10V153a11.52,11.52,0,0,0,.26-1.47,122.41,122.41,0,0,1,4.17-26.23c.32-1.16-.15-2.61-.49-3.87-.55-2-1.57-3.9-1.9-5.92a41.72,41.72,0,0,1,1.21-17.32c6.67-25.46,22.52-42.55,47.33-51.29,10.71-3.77,21.87-5,33.12-5.79,2.92-.2,5.84-.42,8.76-.64h21.08c2.41.21,4.83.38,7.23.66,3.65.41,7.35.68,10.68,2.44C290.7,50.12,301.89,58.08,311,68.8c1.48,1.75,3.71,2.87,5.59,4.28a8.32,8.32,0,0,1,1.95,1.56,39.84,39.84,0,0,1,3.06,5.07c2.93,6,5.42,12.23,8.72,18a52.39,52.39,0,0,1,6.65,31.35,31.78,31.78,0,0,1-1.4,5.71,36.17,36.17,0,0,0-1.54,5c-.63,4.87-1,9.78-1.45,14.68a2,2,0,0,0,.76,1.53,18.57,18.57,0,0,1,7.38,10.62v5.78a10.31,10.31,0,0,0-.29,1.14,27,27,0,0,1-10,17.72c-3.19,2.57-6.75,3.65-10.78,2.44a1.33,1.33,0,0,0-1.92,1c-.47,1.27-1,2.54-1.49,3.78-5,11.75-11.67,22.39-21.79,30.48-11.6,9.27-25.24,13.93-39.55,16.89-3.85.8-7.8,1.15-11.71,1.7H230.23c-2.73-.37-5.48-.65-8.19-1.13a90.4,90.4,0,0,1-43-20C163.22,213.28,152.74,196.82,148.5,176.6ZM339,174.66a15.94,15.94,0,0,0-2.17-13.44A12.93,12.93,0,0,0,323,155.14c-.95.18-1.88.47-2.82.71l-.26-.49c.27-.25.5-.62.82-.73a12.79,12.79,0,0,1,2.61-.68,1.69,1.69,0,0,0,1.75-2,70,70,0,0,0-1.68-16.51,74.84,74.84,0,0,0-19.25-35C294.31,90.11,283,81.75,269.4,76.82c-12-4.37-24.57-5.45-37.29-4.75a114.58,114.58,0,0,0-38.84,8.87c-21.29,9-35.5,24.31-41.37,46.94a129.51,129.51,0,0,0-3.68,25.31c-.58,10.2.08,20.25,3.1,30.06,5.83,19,17,34.15,32.89,45.8a87.23,87.23,0,0,0,53.26,17.39c13-.08,25.39-3.07,37.48-7.73A65.92,65.92,0,0,0,310.15,208c2.6-4.75,4.57-9.83,6.8-14.78.36-.79.54-1.72,1.75-1.18,4.86,2.18,8.83.33,12.38-2.9C335.37,185.28,337.49,180.15,339,174.66Z" transform="translate(-146.95 -40.49)" style="fill:#845424"/><path d="M336.85,161.22A15.94,15.94,0,0,1,339,174.66c-1.53,5.49-3.64,10.62-7.94,14.53-3.55,3.23-7.52,5.07-12.38,2.9-1.21-.54-1.39.39-1.75,1.18-2.23,4.94-4.2,10-6.8,14.78a65.92,65.92,0,0,1-35.21,30.65c-12.09,4.66-24.47,7.65-37.48,7.73A87.23,87.23,0,0,1,184.21,229c-15.93-11.65-27.06-26.85-32.89-45.8-3-9.81-3.67-19.86-3.1-30.06a129.51,129.51,0,0,1,3.68-25.31C157.77,105.24,172,90,193.27,80.93a114.58,114.58,0,0,1,38.84-8.87c12.72-.7,25.24.38,37.29,4.75,13.58,4.93,24.91,13.29,34.79,23.68a74.84,74.84,0,0,1,19.25,35A70,70,0,0,1,325.12,152a1.69,1.69,0,0,1-1.75,2,12.79,12.79,0,0,0-2.61.68c-.32.11-.55.48-.82.73l.26.49c.94-.24,1.87-.53,2.82-.71A12.93,12.93,0,0,1,336.85,161.22Zm-38.95-9.29c.13-9.65-4.31-17.05-12.16-22.43s-16.38-6.09-25.37-4.23a24.87,24.87,0,0,0-17,11.86c-3.61,6-4.55,12.68-3.83,19.48.73,7,3.09,13.56,9.14,17.69a32.88,32.88,0,0,0,18.59,6c10.6,0,18.38-3.88,24.47-12.51C295.07,163.08,297.82,157.9,297.9,151.93Zm-7.64-28.83c.43,0,.84-.62,1.25-.95a9.2,9.2,0,0,0-1.19-.85c-.22-.12-.55,0-.84,0-8.7-.32-17.41-.49-26.1-1-5.85-.36-11.62-1.35-15.94-6a1.28,1.28,0,0,0-1.25,0c-.23.17-.23.87-.08,1.23s.58.67.91,1a18.53,18.53,0,0,0,11.11,5c8.42.91,16.87,1.48,25.32,2.19,0-.15,0-.31,0-.46C285.74,123.15,288,123.2,290.26,123.1Zm-42.7,96.42c.06-.48-.53-1-.82-1.57-.34.5-.9,1-1,1.5-.4,3-.49,6.1-1.05,9.09a55.91,55.91,0,0,1-2.42,8.76c-.64,1.75-2.18,2.11-3.56.85a11.35,11.35,0,0,1-3.33-4.52c-.94-3-1.2-6.29-1.8-9.44-.11-.56-.33-1.37-.72-1.52a1.85,1.85,0,0,0-1.59.57c-2.13,2.47-4.2,5-6.24,7.56a26.16,26.16,0,0,0-1.52,2.37l-.53,0a13.35,13.35,0,0,1-1.17-3.53,16.83,16.83,0,0,1,.52-5.53c1.42-4.7,3.14-9.3,4.66-14,.16-.5-.2-1.17-.33-1.76-.45.34-1.14.59-1.29,1-1.83,5.39-3.77,10.76-5.27,16.25a9.25,9.25,0,0,0,.92,7.72c1.82,2.75,3,2.74,4.62,0,.29-.49.55-1,.88-1.45,1.54-2.14,3.1-4.27,4.65-6.4l.46.27c.41,2.21.73,4.43,1.25,6.61a12.33,12.33,0,0,0,3.54,6.45c3.26,3,6.21,2.41,8-1.54a8.73,8.73,0,0,0,.78-2.23C246.09,229.91,246.86,224.72,247.56,219.52ZM238,188.29c.22-.25.15-.76.21-1.15-.4,0-.91-.17-1.2,0-1,.64-1.89,1.45-2.88,2.09-3.17,2.07-6.52,3.65-10.45,3.45-3.6-.19-6.23-2.61-5.89-6a12.67,12.67,0,0,1,2.11-6.09c1.82-2.46,4.33-4.4,6.5-6.61a4.19,4.19,0,0,0,.59-1.35c-.45,0-1-.22-1.33,0-4,2.77-7.41,6-9,10.73-2.08,6.06,1.43,10.9,7.82,10.93C228.64,194.27,235.28,191.38,238,188.29Zm-20.42-28.23c2-4.28,3.61-8.77,3-13.59-1.15-8.78-6-15.18-13.71-19.23-5.77-3-12.11-4.62-18.53-2.77-13.14,3.79-20.95,12.86-24,26a19.83,19.83,0,0,0,1.95,14.33c5.08,9.29,13.58,12.71,23.77,13.65C202.5,177.41,212.14,171.87,217.59,160.07Zm-5-43.2c0-1.82-1.66-.58-2.38-1-1.65.1-3.17.23-4.69.26a157.74,157.74,0,0,0-33,4.19c-.53.12-.93.8-1.39,1.22.6.2,1.27.67,1.8.55,12.26-3,24.74-3.89,37.29-4.37C211,117.72,212.58,118.48,212.58,116.86Z" transform="translate(-146.95 -40.49)" style="fill:#f6c49f"/><path d="M267.24,180.34a32.89,32.89,0,0,1-18.59-6c-6.05-4.14-8.4-10.7-9.14-17.69-.71-6.8.22-13.47,3.83-19.48a24.88,24.88,0,0,1,17-11.86c9-1.87,17.6-1.09,25.37,4.23S298,142.28,297.9,151.93c-.08,6-2.83,11.15-6.18,15.91C285.62,176.46,277.84,180.33,267.24,180.34Zm-27-26.89c.46,2.38.87,5.82,1.82,9.1,2,6.76,6.18,11.26,13,13.88,6.6,2.53,13,3.5,19.88,1.85,10.69-2.58,16.65-10.06,20.43-19.78,3-7.8,1.38-15-3.36-21.47-9.53-13-26.35-14.23-38.35-8.1C244.22,133.73,240.84,142.34,240.19,153.45Z" transform="translate(-146.95 -40.49)"/><path d="M190,178.48c-10.18-.94-18.68-4.36-23.77-13.65a19.85,19.85,0,0,1-1.95-14.33c3.07-13.17,10.87-22.24,24-26,6.42-1.85,12.76-.26,18.53,2.77,7.71,4,12.56,10.45,13.71,19.23.63,4.82-1,9.31-3,13.59C212.14,171.87,202.5,177.41,190,178.48Zm3.29-53.66a36.48,36.48,0,0,0-5.31.91c-11.85,3.83-19.19,11.93-22.31,23.92a19.87,19.87,0,0,0,1.69,14.81c4.9,9.21,16.69,14.36,27.44,12.18,13.27-2.69,20.76-11.22,24.11-23.84a18.56,18.56,0,0,0-2.71-15.4C210.8,129.16,203.05,125.28,193.3,124.82Z" transform="translate(-146.95 -40.49)"/><path d="M231.22,225.54c-1.55,2.13-3.11,4.26-4.65,6.4-.33.46-.59,1-.88,1.45-1.67,2.76-2.8,2.78-4.62,0a9.26,9.26,0,0,1-.93-7.72c1.5-5.49,3.44-10.86,5.27-16.25.15-.44.85-.69,1.29-1,.12.59.49,1.26.33,1.76-1.52,4.67-3.24,9.27-4.66,14a16.89,16.89,0,0,0-.52,5.53A13.34,13.34,0,0,0,223,233.2l.53,0a25.47,25.47,0,0,1,1.52-2.36c2-2.55,4.11-5.08,6.24-7.56a1.85,1.85,0,0,1,1.59-.57c.38.15.61,1,.72,1.52.6,3.15.86,6.4,1.8,9.43a11.3,11.3,0,0,0,3.33,4.52c1.38,1.26,2.92.89,3.56-.85a56.18,56.18,0,0,0,2.42-8.76c.56-3,.66-6.07,1.05-9.09.07-.53.63-1,1-1.5.29.53.88,1.09.82,1.57-.69,5.2-1.47,10.39-2.27,15.57a8.7,8.7,0,0,1-.78,2.23c-1.82,4-4.78,4.52-8,1.54a12.34,12.34,0,0,1-3.54-6.45c-.52-2.18-.84-4.4-1.25-6.61Z" transform="translate(-146.95 -40.49)"/><path d="M283.43,123.6c-8.44-.71-16.9-1.28-25.32-2.19a18.54,18.54,0,0,1-11.1-5c-.33-.31-.76-.6-.91-1s-.14-1.06.08-1.23a1.28,1.28,0,0,1,1.26,0c4.32,4.65,10.09,5.64,15.94,6,8.69.54,17.4.7,26.1,1,.28,0,.61-.09.84,0a9.2,9.2,0,0,1,1.19.85c-.42.33-.82.93-1.26.95-2.26.1-4.53,0-6.79,0Z" transform="translate(-146.95 -40.49)"/><path d="M210.2,115.91c.72.37,2.38-.87,2.38,1,0,1.62-1.59.85-2.42.89-12.55.48-25,1.4-37.29,4.37-.53.13-1.2-.35-1.8-.55.46-.42.86-1.1,1.39-1.22a157.79,157.79,0,0,1,33-4.19C207,116.15,208.55,116,210.2,115.91Z" transform="translate(-146.95 -40.49)"/><path d="M224.47,194.25c-6.39,0-9.9-4.87-7.82-10.93,1.61-4.7,5.06-8,9-10.73.29-.21.88,0,1.32,0a4.23,4.23,0,0,1-.59,1.35c-2.17,2.21-4.68,4.15-6.5,6.61a12.68,12.68,0,0,0-2.11,6.1c-.33,3.43,2.3,5.86,5.9,6,3.93.21,7.27-1.38,10.45-3.45,1-.65,1.88-1.46,2.88-2.09.29-.18.79,0,1.2,0-.06.39,0,.89-.21,1.14C235.28,191.38,228.64,194.27,224.47,194.25Z" transform="translate(-146.95 -40.49)"/><path d="M240.19,153.45c.65-11.11,4-19.72,13.41-24.51,12-6.13,28.82-4.88,38.35,8.1,4.74,6.46,6.4,13.66,3.36,21.47-3.78,9.72-9.73,17.2-20.43,19.78-6.84,1.65-13.28.69-19.88-1.85-6.82-2.62-11-7.12-13-13.88C241.06,159.27,240.65,155.83,240.19,153.45Zm30.69-2.67,0-.83a7.39,7.39,0,0,0-2.38-1.27,1.64,1.64,0,0,0-1.83,1.79,1.71,1.71,0,0,0,2,1.79C269.44,152.11,270.13,151.29,270.88,150.78Z" transform="translate(-146.95 -40.49)" style="fill:#fff"/><path d="M193.3,124.82c9.75.46,17.5,4.33,22.9,12.58a18.56,18.56,0,0,1,2.71,15.4c-3.34,12.62-10.84,21.15-24.11,23.84-10.76,2.18-22.55-3-27.44-12.18a19.87,19.87,0,0,1-1.69-14.81c3.12-12,10.47-20.09,22.31-23.92A36.48,36.48,0,0,1,193.3,124.82Zm1.34,23.73h-.8c-.55.7-1.54,1.41-1.53,2.1s1,1.52,1.79,1.72a1.56,1.56,0,0,0,2-1.64C196.06,150,195.17,149.27,194.64,148.55Z" transform="translate(-146.95 -40.49)" style="fill:#fff"/><path d="M270.88,150.78c-.74.52-1.43,1.34-2.25,1.48a1.71,1.71,0,0,1-2-1.79,1.64,1.64,0,0,1,1.83-1.79,7.39,7.39,0,0,1,2.38,1.27Z" transform="translate(-146.95 -40.49)"/><path d="M194.64,148.55c.53.72,1.42,1.41,1.49,2.17a1.56,1.56,0,0,1-2,1.64c-.74-.2-1.78-1.12-1.79-1.72s1-1.4,1.53-2.1Z" transform="translate(-146.95 -40.49)"/></svg>